<svg width="128" height="128" viewBox="0 0 128 128" xmlns="http://www.w3.org/2000/svg" role="img" aria-label="CommentNovel book logo">
  <rect width="128" height="128" rx="24" fill="#202938"/>
  <path d="M28 34c14 0 24 4 36 12 12-8 22-12 36-12 4.4 0 8 3.6 8 8v56c0 3.3-2.7 6-6 6-12.5 0-23.5 2.9-35.3 9.1-1.7.9-3.7.9-5.4 0C49.5 106.9 38.5 104 26 104c-3.3 0-6-2.7-6-6V42c0-4.4 3.6-8 8-8Z" fill="#F8FAFC"/>
  <path d="M28 42c12.1 0 21.5 3.1 32 10v52.5c-10.1-5.2-20.2-7.6-32-7.6V42Z" fill="#E2E8F0"/>
  <path d="M68 52c10.5-6.9 19.9-10 32-10v54.9c-11.8 0-21.9 2.4-32 7.6V52Z" fill="#FFFFFF"/>
  <path d="M61 48h6v62h-6z" fill="#14B8A6"/>
  <path d="M82 45v27l7-5 7 5V42.5c-5.1.4-9.7 1.5-14 3.5Z" fill="#F97316"/>
  <path d="M35 55c6.4.5 11.9 1.9 17 4.4M35 68c6.4.5 11.9 1.9 17 4.4M76 59.4c5.1-2.5 10.6-3.9 17-4.4M76 72.4c5.1-2.5 10.6-3.9 17-4.4" stroke="#94A3B8" stroke-width="4" stroke-linecap="round"/>
</svg>
