<svg width="24" height="24" viewBox="0 0 24 24" xmlns="http://www.w3.org/2000/svg" role="img" aria-label="CommentNovel">
  <path d="M4.5 5.5c3.1 0 5.3.7 7.5 2.2 2.2-1.5 4.4-2.2 7.5-2.2.8 0 1.5.7 1.5 1.5v10.4c0 .7-.6 1.2-1.2 1.2-2.8 0-5 .6-7.2 1.8-.4.2-.8.2-1.2 0-2.2-1.2-4.4-1.8-7.2-1.8-.6 0-1.2-.5-1.2-1.2V7c0-.8.7-1.5 1.5-1.5Z" fill="none" stroke="currentColor" stroke-width="1.8" stroke-linejoin="round"/>
  <path d="M12 7.7v12.1M7 9.4c1.8.2 3.2.6 4.3 1.2M17 9.4c-1.8.2-3.2.6-4.3 1.2M7 13c1.8.2 3.2.6 4.3 1.2M17 13c-1.8.2-3.2.6-4.3 1.2" fill="none" stroke="currentColor" stroke-width="1.45" stroke-linecap="round"/>
</svg>
